<svg id="visual" viewBox="0 0 1920 1080" width="1920" height="1080" xmlns="http://www.w3.org/2000/svg" xmlns:xlink="http://www.w3.org/1999/xlink" version="1.1"><rect x="0" y="0" width="1920" height="1080" fill="#ffffff"></rect><defs><linearGradient id="grad1_0" x1="43.8%" y1="100%" x2="100%" y2="0%"><stop offset="14.444444444444446%" stop-color="#ffffff" stop-opacity="1"></stop><stop offset="85.55555555555554%" stop-color="#ffffff" stop-opacity="1"></stop></linearGradient></defs><defs><linearGradient id="grad2_0" x1="0%" y1="100%" x2="56.3%" y2="0%"><stop offset="14.444444444444446%" stop-color="#ffffff" stop-opacity="1"></stop><stop offset="85.55555555555554%" stop-color="#ffffff" stop-opacity="1"></stop></linearGradient></defs><g transform="translate(1920, 1080)"><path d="M-540 0C-489.2 -45.5 -438.4 -90.9 -411.8 -133.8C-385.2 -176.7 -382.9 -217.1 -375.4 -272.7C-367.9 -328.4 -355.3 -399.4 -317.4 -436.9C-279.5 -474.3 -216.3 -478.2 -159.1 -489.8C-102 -501.4 -51 -520.7 0 -540L0 0Z" fill="#153CF5"></path></g><g transform="translate(0, 0)"><path d="M540 0C532.5 55.6 525.1 111.1 504.1 163.8C483 216.4 448.5 266.1 402.9 292.7C357.3 319.3 300.8 322.8 263.3 362.4C225.9 402.1 207.6 477.9 166.9 513.6C126.2 549.2 63.1 544.6 0 540L0 0Z" fill="#153CF5"></path></g></svg>